<svg width="172" height="170" viewBox="0 0 172 170" fill="none" xmlns="http://www.w3.org/2000/svg">
    <g clip-path="url(#clip0_93_29)">
        <g filter="url(#filter0_d_93_29)">
            <path d="M153.432 0H18.5681C10.4722 0 3.90906 6.52385 3.90906 14.5714V147.657C3.90906 155.705 10.4722 162.229 18.5681 162.229H153.432C161.528 162.229 168.091 155.705 168.091 147.657V14.5714C168.091 6.52385 161.528 0 153.432 0Z"
                  fill="#C3FD1F"/>
        </g>
        <g filter="url(#filter1_d_93_29)">
            <path d="M85.5114 136.971C116.546 136.971 141.705 111.963 141.705 81.1143C141.705 50.2653 116.546 25.2572 85.5114 25.2572C54.4768 25.2572 29.3182 50.2653 29.3182 81.1143C29.3182 111.963 54.4768 136.971 85.5114 136.971Z"
                  stroke="black" stroke-width="4"/>
        </g>
        <g filter="url(#filter2_d_93_29)">
            <path d="M54.61 77.8025C54.5266 77.1034 54.1888 76.5607 53.5965 76.1743C53.0043 75.7879 52.2778 75.5948 51.4171 75.5948C50.7878 75.5948 50.2371 75.6959 49.7652 75.8983C49.2979 76.1007 48.9323 76.379 48.6685 76.7332C48.4094 77.0873 48.2799 77.4897 48.2799 77.9406C48.2799 78.3177 48.3701 78.6419 48.5506 78.9134C48.7357 79.1801 48.9717 79.4032 49.2585 79.5826C49.5454 79.7573 49.8461 79.9023 50.1608 80.0172C50.4755 80.1276 50.7647 80.2173 51.0284 80.2863L52.4722 80.6727C52.8424 80.7693 53.2542 80.9026 53.7076 81.0728C54.1657 81.243 54.603 81.4753 55.0194 81.7696C55.4405 82.0594 55.7876 82.432 56.0605 82.8874C56.3336 83.3427 56.4701 83.9015 56.4701 84.5639C56.4701 85.3274 56.2688 86.0173 55.8662 86.6337C55.4683 87.2501 54.8853 87.7399 54.1171 88.1033C53.3537 88.4667 52.4258 88.6483 51.3338 88.6483C50.3158 88.6483 49.4343 88.485 48.6893 88.1584C47.9491 87.8319 47.366 87.3765 46.9403 86.7924C46.5192 86.2082 46.2809 85.5299 46.2253 84.7571H48.0022C48.0485 85.2906 48.2289 85.7322 48.5436 86.0817C48.8629 86.4267 49.2654 86.6843 49.7513 86.8545C50.2418 87.02 50.7693 87.1029 51.3338 87.1029C51.9909 87.1029 52.5808 86.9971 53.1038 86.7855C53.6266 86.5693 54.0408 86.2704 54.3462 85.8886C54.6516 85.5022 54.8042 85.0514 54.8042 84.5363C54.8042 84.0672 54.6724 83.6854 54.4086 83.3911C54.1449 83.0966 53.7978 82.8575 53.3675 82.6735C52.9372 82.4895 52.4722 82.3285 51.9724 82.1906L50.2233 81.6938C49.1128 81.3764 48.2336 80.9233 47.5858 80.3346C46.938 79.7459 46.6141 78.9754 46.6141 78.0233C46.6141 77.2322 46.8292 76.5423 47.2596 75.9535C47.6945 75.3602 48.2775 74.9002 49.0086 74.5736C49.7444 74.2424 50.5657 74.0769 51.4726 74.0769C52.3888 74.0769 53.2033 74.2402 53.9158 74.5667C54.6284 74.8887 55.193 75.3302 55.6094 75.8914C56.0305 76.4525 56.2526 77.0896 56.2757 77.8025H54.61ZM70.7388 78.6857H69.0174C68.9156 78.1935 68.7375 77.7611 68.4829 77.3886C68.2331 77.016 67.9277 76.7033 67.5667 76.4503C67.2105 76.1927 66.8148 75.9995 66.3799 75.8707C65.9449 75.7419 65.4915 75.6775 65.0195 75.6775C64.1588 75.6775 63.3791 75.8937 62.6804 76.3261C61.9863 76.7584 61.4334 77.3955 61.0215 78.2372C60.6143 79.0789 60.4107 80.1115 60.4107 81.335C60.4107 82.5585 60.6143 83.5911 61.0215 84.4328C61.4334 85.2746 61.9863 85.9115 62.6804 86.3439C63.3791 86.7763 64.1588 86.9924 65.0195 86.9924C65.4915 86.9924 65.9449 86.928 66.3799 86.7993C66.8148 86.6705 67.2105 86.4796 67.5667 86.2267C67.9277 85.969 68.2331 85.654 68.4829 85.2815C68.7375 84.9043 68.9156 84.4719 69.0174 83.9843H70.7388C70.6092 84.7065 70.3732 85.3528 70.0307 85.9231C69.6884 86.4934 69.2627 86.9786 68.7536 87.3789C68.2447 87.7744 67.6732 88.0757 67.0393 88.2827C66.4099 88.4896 65.7367 88.5932 65.0195 88.5932C63.8072 88.5932 62.729 88.2987 61.785 87.71C60.841 87.1213 60.0984 86.2842 59.557 85.1986C59.0156 84.1131 58.745 82.8253 58.745 81.335C58.745 79.8448 59.0156 78.5568 59.557 77.4714C60.0984 76.3859 60.841 75.5487 61.785 74.96C62.729 74.3713 63.8072 74.0769 65.0195 74.0769C65.7367 74.0769 66.4099 74.1804 67.0393 74.3874C67.6732 74.5944 68.2447 74.898 68.7536 75.2981C69.2627 75.6937 69.6884 76.1766 70.0307 76.747C70.3732 77.3126 70.6092 77.9589 70.7388 78.6857ZM73.5203 88.3999V74.27H78.3234C79.4339 74.27 80.3455 74.4587 81.0581 74.8358C81.7706 75.2084 82.2981 75.7212 82.6406 76.3743C82.983 77.0275 83.1542 77.7704 83.1542 78.6029C83.1542 79.4354 82.983 80.1736 82.6406 80.8176C82.2981 81.4615 81.773 81.9674 81.065 82.3354C80.3571 82.6988 79.4524 82.8805 78.3511 82.8805H74.4642V81.335H78.2956C79.0545 81.335 79.6653 81.2246 80.128 81.0039C80.5953 80.7831 80.9331 80.4703 81.1413 80.0656C81.3542 79.6562 81.4606 79.1687 81.4606 78.6029C81.4606 78.0371 81.3542 77.5427 81.1413 77.1195C80.9285 76.6964 80.5884 76.3698 80.1211 76.1398C79.6537 75.9052 79.036 75.7879 78.2679 75.7879H75.2416V88.3999H73.5203ZM80.2113 82.0525L83.7094 88.3999H81.7105L78.2679 82.0525H80.2113ZM87.7438 74.27V88.3999H86.0225V74.27H87.7438ZM91.1952 88.3999V74.27H95.9982C97.1134 74.27 98.0253 74.4701 98.7328 74.8703C99.4453 75.2658 99.973 75.8017 100.315 76.4779C100.658 77.154 100.829 77.9083 100.829 78.7408C100.829 79.5733 100.658 80.33 100.315 81.0108C99.9779 81.6914 99.455 82.2342 98.7465 82.639C98.039 83.0391 97.132 83.2392 96.026 83.2392H92.5834V81.7214H95.9705C96.734 81.7214 97.3471 81.5903 97.8103 81.3281C98.2725 81.0659 98.6077 80.7118 98.8159 80.2656C99.029 79.8148 99.1355 79.3066 99.1355 78.7408C99.1355 78.1751 99.029 77.6692 98.8159 77.223C98.6077 76.7768 98.2706 76.4273 97.8025 76.1743C97.3355 75.9167 96.7155 75.7879 95.9427 75.7879H92.9165V88.3999H91.1952ZM102.825 75.7879V74.27H113.486V75.7879H109.016V88.3999H107.295V75.7879H102.825ZM123.916 77.8025C123.833 77.1034 123.495 76.5607 122.903 76.1743C122.311 75.7879 121.584 75.5948 120.723 75.5948C120.094 75.5948 119.544 75.6959 119.072 75.8983C118.604 76.1007 118.238 76.379 117.974 76.7332C117.715 77.0873 117.586 77.4897 117.586 77.9406C117.586 78.3177 117.676 78.6419 117.857 78.9134C118.042 79.1801 118.278 79.4032 118.565 79.5826C118.852 79.7573 119.152 79.9023 119.467 80.0172C119.781 80.1276 120.071 80.2173 120.334 80.2863L121.778 80.6727C122.148 80.7693 122.561 80.9026 123.014 81.0728C123.472 81.243 123.909 81.4753 124.326 81.7696C124.747 82.0594 125.094 82.432 125.366 82.8874C125.64 83.3427 125.776 83.9015 125.776 84.5639C125.776 85.3274 125.575 86.0173 125.172 86.6337C124.774 87.2501 124.192 87.7399 123.424 88.1033C122.659 88.4667 121.732 88.6483 120.64 88.6483C119.622 88.6483 118.741 88.485 117.996 88.1584C117.255 87.8319 116.673 87.3765 116.247 86.7924C115.825 86.2082 115.587 85.5299 115.531 84.7571H117.309C117.355 85.2906 117.536 85.7322 117.85 86.0817C118.169 86.4267 118.571 86.6843 119.057 86.8545C119.548 87.02 120.075 87.1029 120.64 87.1029C121.297 87.1029 121.887 86.9971 122.41 86.7855C122.933 86.5693 123.347 86.2704 123.652 85.8886C123.958 85.5022 124.111 85.0514 124.111 84.5363C124.111 84.0672 123.979 83.6854 123.715 83.3911C123.451 83.0966 123.104 82.8575 122.674 82.6735C122.243 82.4895 121.778 82.3285 121.279 82.1906L119.529 81.6938C118.419 81.3764 117.539 80.9233 116.892 80.3346C116.245 79.7459 115.92 78.9754 115.92 78.0233C115.92 77.2322 116.135 76.5423 116.566 75.9535C117.001 75.3602 117.583 74.9002 118.314 74.5736C119.05 74.2424 119.872 74.0769 120.779 74.0769C121.695 74.0769 122.51 74.2402 123.222 74.5667C123.935 74.8887 124.5 75.3302 124.916 75.8914C125.337 76.4525 125.559 77.0896 125.581 77.8025H123.916Z"
                  fill="black"/>
        </g>
    </g>
    <defs>
        <filter id="filter0_d_93_29" x="-0.0909424" y="0" width="172.182" height="170.229" filterUnits="userSpaceOnUse"
                color-interpolation-filters="sRGB">
            <feFlood flood-opacity="0" result="BackgroundImageFix"/>
            <feColorMatrix in="SourceAlpha" type="matrix" values="0 0 0 0 0 0 0 0 0 0 0 0 0 0 0 0 0 0 127 0"
                           result="hardAlpha"/>
            <feOffset dy="4"/>
            <feGaussianBlur stdDeviation="2"/>
            <feComposite in2="hardAlpha" operator="out"/>
            <feColorMatrix type="matrix" values="0 0 0 0 0 0 0 0 0 0 0 0 0 0 0 0 0 0 0.25 0"/>
            <feBlend mode="normal" in2="BackgroundImageFix" result="effect1_dropShadow_93_29"/>
            <feBlend mode="normal" in="SourceGraphic" in2="effect1_dropShadow_93_29" result="shape"/>
        </filter>
        <filter id="filter1_d_93_29" x="23.3182" y="23.2572" width="124.386" height="123.714"
                filterUnits="userSpaceOnUse" color-interpolation-filters="sRGB">
            <feFlood flood-opacity="0" result="BackgroundImageFix"/>
            <feColorMatrix in="SourceAlpha" type="matrix" values="0 0 0 0 0 0 0 0 0 0 0 0 0 0 0 0 0 0 127 0"
                           result="hardAlpha"/>
            <feOffset dy="4"/>
            <feGaussianBlur stdDeviation="2"/>
            <feComposite in2="hardAlpha" operator="out"/>
            <feColorMatrix type="matrix" values="0 0 0 0 0 0 0 0 0 0 0 0 0 0 0 0 0 0 0.25 0"/>
            <feBlend mode="normal" in2="BackgroundImageFix" result="effect1_dropShadow_93_29"/>
            <feBlend mode="normal" in="SourceGraphic" in2="effect1_dropShadow_93_29" result="shape"/>
        </filter>
        <filter id="filter2_d_93_29" x="42.2253" y="74.0769" width="87.5505" height="22.5714"
                filterUnits="userSpaceOnUse" color-interpolation-filters="sRGB">
            <feFlood flood-opacity="0" result="BackgroundImageFix"/>
            <feColorMatrix in="SourceAlpha" type="matrix" values="0 0 0 0 0 0 0 0 0 0 0 0 0 0 0 0 0 0 127 0"
                           result="hardAlpha"/>
            <feOffset dy="4"/>
            <feGaussianBlur stdDeviation="2"/>
            <feComposite in2="hardAlpha" operator="out"/>
            <feColorMatrix type="matrix" values="0 0 0 0 0 0 0 0 0 0 0 0 0 0 0 0 0 0 0.25 0"/>
            <feBlend mode="normal" in2="BackgroundImageFix" result="effect1_dropShadow_93_29"/>
            <feBlend mode="normal" in="SourceGraphic" in2="effect1_dropShadow_93_29" result="shape"/>
        </filter>
        <clipPath id="clip0_93_29">
            <rect width="172" height="170" fill="white"/>
        </clipPath>
    </defs>
</svg>
